<svg width="20" height="20" viewBox="0 0 20 20" fill="none" xmlns="http://www.w3.org/2000/svg">
<path d="M10 0.896118C12.717 0.896118 13.056 0.905599 14.122 0.953003C15.187 1.00041 15.912 1.15874 16.55 1.39386C17.21 1.63468 17.766 1.96082 18.322 2.487C18.8305 2.96095 19.224 3.53425 19.475 4.16701C19.722 4.77094 19.89 5.45925 19.94 6.46896C19.987 7.47962 20 7.80102 20 10.377C20 12.9529 19.99 13.2743 19.94 14.285C19.89 15.2947 19.722 15.982 19.475 16.5869C19.2247 17.22 18.8311 17.7935 18.322 18.2669C17.822 18.7489 17.2173 19.1219 16.55 19.3601C15.913 19.5942 15.187 19.7535 14.122 19.8009C13.056 19.8455 12.717 19.8578 10 19.8578C7.283 19.8578 6.944 19.8483 5.878 19.8009C4.813 19.7535 4.088 19.5942 3.45 19.3601C2.78233 19.1225 2.17753 18.7494 1.678 18.2669C1.16941 17.7931 0.775931 17.2197 0.525 16.5869C0.277 15.983 0.11 15.2947 0.0599999 14.285C0.0129999 13.2743 0 12.9529 0 10.377C0 7.80102 0.00999994 7.47962 0.0599999 6.46896C0.11 5.4583 0.277 4.77189 0.525 4.16701C0.775236 3.53386 1.1688 2.9604 1.678 2.487C2.17767 2.00465 2.78243 1.63158 3.45 1.39386C4.088 1.15874 4.812 1.00041 5.878 0.953003C6.944 0.908443 7.283 0.896118 10 0.896118ZM10 5.63654C8.67392 5.63654 7.40215 6.13598 6.46447 7.02498C5.52678 7.91398 5 9.11973 5 10.377C5 11.6342 5.52678 12.8399 6.46447 13.7289C7.40215 14.618 8.67392 15.1174 10 15.1174C11.3261 15.1174 12.5979 14.618 13.5355 13.7289C14.4732 12.8399 15 11.6342 15 10.377C15 9.11973 14.4732 7.91398 13.5355 7.02498C12.5979 6.13598 11.3261 5.63654 10 5.63654ZM16.5 5.39952C16.5 5.08521 16.3683 4.78377 16.1339 4.56152C15.8995 4.33927 15.5815 4.21441 15.25 4.21441C14.9185 4.21441 14.6005 4.33927 14.3661 4.56152C14.1317 4.78377 14 5.08521 14 5.39952C14 5.71383 14.1317 6.01527 14.3661 6.23752C14.6005 6.45977 14.9185 6.58463 15.25 6.58463C15.5815 6.58463 15.8995 6.45977 16.1339 6.23752C16.3683 6.01527 16.5 5.71383 16.5 5.39952ZM10 7.53271C10.7956 7.53271 11.5587 7.83237 12.1213 8.36577C12.6839 8.89917 13 9.62262 13 10.377C13 11.1313 12.6839 11.8548 12.1213 12.3882C11.5587 12.9216 10.7956 13.2212 10 13.2212C9.20435 13.2212 8.44129 12.9216 7.87868 12.3882C7.31607 11.8548 7 11.1313 7 10.377C7 9.62262 7.31607 8.89917 7.87868 8.36577C8.44129 7.83237 9.20435 7.53271 10 7.53271Z" fill="#454444"/>
</svg>
