<svg width="18" height="18" viewBox="0 0 18 18" fill="none" xmlns="http://www.w3.org/2000/svg">
<path d="M15.335 15.3869H12.67V11.4268C12.67 10.4825 12.65 9.26702 11.28 9.26702C9.891 9.26702 9.679 10.2947 9.679 11.3575V15.3869H7.013V7.24381H9.573V8.35307H9.608C9.966 7.71406 10.836 7.03807 12.136 7.03807C14.836 7.03807 15.336 8.72377 15.336 10.9167V15.3869H15.335ZM4.003 6.12981C3.79956 6.13006 3.59806 6.09224 3.41006 6.01851C3.22207 5.94478 3.05127 5.8366 2.90746 5.70017C2.76365 5.56374 2.64965 5.40174 2.57201 5.22345C2.49437 5.04517 2.4546 4.85411 2.455 4.66123C2.4552 4.37096 2.54618 4.08726 2.71644 3.84601C2.8867 3.60477 3.12859 3.4168 3.41153 3.30589C3.69447 3.19499 4.00574 3.16611 4.30598 3.22293C4.60622 3.27974 4.88196 3.41969 5.09831 3.62507C5.31466 3.83046 5.46191 4.09205 5.52145 4.37678C5.58099 4.66151 5.55013 4.95659 5.43278 5.22469C5.31543 5.49279 5.11687 5.72189 4.86219 5.883C4.60751 6.04411 4.30817 6.13 4.002 6.12981H4.003ZM5.339 15.3869H2.666V7.24381H5.34V15.3869H5.339ZM16.67 0.844238H1.329C0.593 0.844238 0 1.39413 0 2.0739V16.6801C0 17.3599 0.594 17.9098 1.328 17.9098H16.666C17.4 17.9098 18 17.3599 18 16.6801V2.0739C18 1.39413 17.4 0.844238 16.666 0.844238H16.669H16.67Z" fill="#454444"/>
</svg>
